<svg width="654" height="132" viewBox="0 0 654 132" fill="none" xmlns="http://www.w3.org/2000/svg">
<path d="M333 109H356C352.376 112.881 342.702 117.981 333 109Z" fill="#F68622" stroke="#F68622"/>
<path d="M195.951 7.73982C200.77 12.8059 205.553 20.5654 208.245 30.1149V0H186.451C190.448 2.29239 193.314 4.96333 195.951 7.73982Z" fill="white"/>
<path d="M196.573 122.952C198.078 125.4 199.809 127.681 201.802 129.648C202.163 130.005 202.548 130.342 202.949 130.661L139 131V123.421L196.573 122.952ZM318 130.053L235.729 130.487V122.634L313.778 122L318 130.053Z" fill="#F68622"/>
<path d="M105 117.001H0V108.001L105 107.656V117.001ZM132.521 117.001H110V107.64L132.521 107.565V117.001ZM181.97 107.402C184.087 110.585 186.734 113.875 190.036 117.001H137.821V107.548L181.97 107.402ZM310 117.001H272.86V107.105L305 107.001L310 117.001Z" fill="#F68622"/>
<path d="M105 103H0V94H105V103ZM244.5 103H213.177C210.036 100.572 207.413 97.5082 205.501 94H238L244.5 103ZM175.377 94C176.195 96.4341 177.449 99.5659 179.315 103H110V94H175.377Z" fill="#F68622"/>
<path d="M0 123L105 121.5V132H0V123Z" fill="#F68622"/>
<path d="M236.94 106.678C221.092 106.678 208.245 93.8313 208.245 77.9844V55.6951C205.59 65.6668 200.608 73.5136 193.43 79.2608V79.1383C190.762 81.2472 187.864 83.0464 184.791 84.5013C184.38 84.6983 183.979 84.9024 183.558 85.0896C182.479 85.5708 181.374 86.0296 180.227 86.4476C180.241 86.4954 180.259 86.5404 180.274 86.5883C180.258 86.5883 180.244 86.6024 180.227 86.608C180.21 86.6136 184.536 111.827 210.258 124.343C226.323 132.16 263.204 130.687 263.204 130.687H279.087V106.678H236.94Z" fill="white"/>
<path d="M18.8472 0V22.8535H58.7797C71.2974 22.8535 76.8795 30.7973 76.8795 40.0948C76.8795 49.3922 71.675 58.3085 58.7797 58.3085H19.038V130.753H41.7575V83.4894C41.7575 81.1619 42.9148 80.1923 45.0304 80.1923H47.61L77.2639 130.748H102.482L72.2516 78.4532C92.0826 72.8341 99.7857 55.4009 99.7857 39.1292C99.7857 18.2068 87.2638 0 58.0054 0H18.8472Z" fill="white"/>
<path d="M109.55 0V22.8535H149.482C162 22.8535 167.582 30.7973 167.582 40.0948C167.582 49.3922 162.378 58.3085 149.482 58.3085H109.741V130.753H132.46V83.4894C132.46 81.1619 133.617 80.1923 135.733 80.1923H138.313L167.967 130.748H193.185L162.954 78.4532C182.785 72.8341 190.488 55.4009 190.488 39.1292C190.488 18.2068 177.966 0 148.708 0H109.55Z" fill="#F68622"/>
<path d="M607.956 105.321C601.028 105.321 595.068 103.853 590.078 100.918C585.117 97.9526 581.3 93.8428 578.629 88.5881C575.987 83.3333 574.666 77.286 574.666 70.446C574.666 63.518 576.002 57.4413 578.673 52.2159C581.374 46.9612 585.205 42.866 590.166 39.9304C595.127 36.9654 601.028 35.483 607.868 35.483C613.768 35.483 618.935 36.5545 623.368 38.6974C627.801 40.8404 631.309 43.8494 633.892 47.7244C636.475 51.5994 637.899 56.1496 638.163 61.375H620.461C619.962 57.9991 618.641 55.2836 616.498 53.2287C614.385 51.1444 611.611 50.1023 608.176 50.1023C605.27 50.1023 602.73 50.8949 600.558 52.4801C598.415 54.036 596.742 56.3111 595.538 59.3054C594.335 62.2997 593.733 65.9252 593.733 70.1818C593.733 74.4972 594.32 78.1667 595.494 81.1903C596.698 84.214 598.386 86.5185 600.558 88.1037C602.73 89.6889 605.27 90.4815 608.176 90.4815C610.319 90.4815 612.242 90.0412 613.944 89.1605C615.676 88.2798 617.1 87.0028 618.216 85.3295C619.361 83.6269 620.109 81.5867 620.461 79.2088H638.163C637.87 84.3755 636.461 88.9257 633.936 92.8594C631.441 96.7637 627.991 99.8168 623.588 102.018C619.184 104.22 613.974 105.321 607.956 105.321Z" fill="white"/>
<path d="M543.611 104V36.3636H562.369V104H543.611ZM553.034 27.6449C550.245 27.6449 547.853 26.7202 545.857 24.8707C543.89 22.992 542.906 20.7462 542.906 18.1335C542.906 15.5502 543.89 13.3338 545.857 11.4844C547.853 9.60559 550.245 8.6662 553.034 8.6662C555.823 8.6662 558.201 9.60559 560.168 11.4844C562.164 13.3338 563.162 15.5502 563.162 18.1335C563.162 20.7462 562.164 22.992 560.168 24.8707C558.201 26.7202 555.823 27.6449 553.034 27.6449Z" fill="white"/>
<path d="M531.392 36.3636V50.4545H490.66V36.3636H531.392ZM499.907 20.1591H518.666V83.2159C518.666 84.9479 518.93 86.2983 519.458 87.267C519.987 88.2064 520.721 88.867 521.66 89.2486C522.629 89.6302 523.744 89.821 525.007 89.821C525.887 89.821 526.768 89.7476 527.649 89.6009C528.529 89.4247 529.205 89.2926 529.674 89.2045L532.625 103.163C531.685 103.457 530.364 103.795 528.662 104.176C526.959 104.587 524.889 104.837 522.453 104.925C517.932 105.101 513.969 104.499 510.564 103.119C507.188 101.74 504.56 99.5966 502.681 96.6903C500.803 93.7841 499.878 90.1146 499.907 85.6818V20.1591Z" fill="white"/>
<path d="M482.062 55.6506L464.889 56.7074C464.595 55.2396 463.964 53.9186 462.995 52.7443C462.026 51.5407 460.749 50.5866 459.164 49.8821C457.608 49.1482 455.744 48.7812 453.572 48.7812C450.666 48.7812 448.214 49.3977 446.218 50.6307C444.222 51.8343 443.224 53.4489 443.224 55.4744C443.224 57.089 443.87 58.4541 445.161 59.5696C446.453 60.6851 448.669 61.5805 451.81 62.2557L464.052 64.7216C470.628 66.072 475.53 68.2443 478.759 71.2386C481.988 74.233 483.603 78.1667 483.603 83.0398C483.603 87.4725 482.297 91.3622 479.684 94.7088C477.101 98.0554 473.549 100.668 469.028 102.547C464.536 104.396 459.355 105.321 453.484 105.321C444.53 105.321 437.397 103.457 432.083 99.7287C426.799 95.9711 423.702 90.8632 422.792 84.4048L441.242 83.4361C441.8 86.1662 443.15 88.2505 445.293 89.6889C447.436 91.098 450.181 91.8026 453.528 91.8026C456.816 91.8026 459.458 91.1714 461.454 89.9091C463.48 88.6174 464.507 86.9588 464.536 84.9332C464.507 83.2306 463.788 81.8362 462.379 80.75C460.97 79.6345 458.797 78.7831 455.862 78.196L444.149 75.8622C437.543 74.5412 432.626 72.2514 429.397 68.9929C426.197 65.7344 424.597 61.5805 424.597 56.5312C424.597 52.1866 425.772 48.4437 428.12 45.3026C430.498 42.1615 433.83 39.7396 438.116 38.0369C442.431 36.3343 447.48 35.483 453.264 35.483C461.806 35.483 468.529 37.2884 473.431 40.8991C478.363 44.5099 481.24 49.4271 482.062 55.6506Z" fill="white"/>
<path d="M392.001 104V36.3636H410.76V104H392.001ZM401.425 27.6449C398.636 27.6449 396.243 26.7202 394.247 24.8707C392.28 22.992 391.297 20.7462 391.297 18.1335C391.297 15.5502 392.28 13.3338 394.247 11.4844C396.243 9.60559 398.636 8.6662 401.425 8.6662C404.214 8.6662 406.591 9.60559 408.558 11.4844C410.554 13.3338 411.553 15.5502 411.553 18.1335C411.553 20.7462 410.554 22.992 408.558 24.8707C406.591 26.7202 404.214 27.6449 401.425 27.6449Z" fill="white"/>
<path d="M268.046 35.4834C274.886 35.4834 280.786 36.9512 285.747 39.8867C290.738 42.793 294.583 46.8732 297.284 52.1279C299.985 57.3533 301.335 63.4596 301.335 70.4463C301.335 77.3741 299.985 83.4651 297.284 88.7197C294.583 93.9451 290.738 98.0263 285.747 100.962C280.786 103.868 274.886 105.321 268.046 105.321C261.206 105.321 255.29 103.868 250.3 100.962C245.339 98.0263 241.507 93.9451 238.807 88.7197C236.106 83.4652 234.756 77.374 234.756 70.4463C234.756 63.4596 236.106 57.3533 238.807 52.1279C241.507 46.8733 245.339 42.793 250.3 39.8867C255.29 36.9511 261.206 35.4834 268.046 35.4834ZM268.134 49.7939C264.993 49.7939 262.351 50.6898 260.208 52.4805C258.094 54.2712 256.494 56.7077 255.408 59.79C254.351 62.8723 253.822 66.38 253.822 70.3135C253.822 74.2472 254.351 77.7555 255.408 80.8379C256.494 83.9203 258.094 86.3567 260.208 88.1475C262.351 89.9088 264.993 90.79 268.134 90.79C271.245 90.79 273.843 89.9088 275.928 88.1475C278.012 86.3568 279.583 83.9202 280.64 80.8379C281.726 77.7556 282.269 74.2471 282.269 70.3135C282.269 66.3801 281.726 62.8722 280.64 59.79C279.583 56.7077 278.012 54.2712 275.928 52.4805C273.843 50.6898 271.245 49.794 268.134 49.7939Z" fill="white"/>
<path d="M338.412 35.4826C342.199 35.4826 345.37 36.1284 347.924 37.4201C350.478 38.6823 352.532 40.268 354.088 42.176C355.673 44.0548 356.892 45.9047 357.743 47.7248H358.447V36.3635H377.074V104.66C377.074 110.414 375.665 115.229 372.847 119.104C370.029 122.979 366.124 125.885 361.134 127.822C356.173 129.789 350.463 130.773 344.005 130.773C337.928 130.773 332.717 129.936 328.372 128.263C324.057 126.619 320.622 124.373 318.068 121.526C315.514 118.678 313.856 115.478 313.093 111.926L330.442 109.592C330.971 110.942 331.807 112.205 332.952 113.379C334.097 114.553 335.609 115.493 337.487 116.197C339.395 116.931 341.715 117.298 344.445 117.298C348.526 117.298 351.886 116.3 354.528 114.304C357.2 112.337 358.536 109.035 358.536 104.397V92.0226H357.743C356.921 93.9014 355.688 95.6775 354.044 97.3508C352.4 99.024 350.286 100.39 347.703 101.446C345.12 102.503 342.037 103.031 338.456 103.031C333.378 103.031 328.754 101.857 324.586 99.509C320.447 97.1311 317.144 93.5051 314.678 88.632C312.241 83.7296 311.022 77.5356 311.022 70.05C311.022 62.3881 312.27 55.9881 314.766 50.8508C317.261 45.7135 320.579 41.8676 324.718 39.3137C328.886 36.7598 333.451 35.4826 338.412 35.4826ZM344.4 50.4103C341.318 50.4104 338.72 51.2469 336.606 52.9201C334.493 54.564 332.893 56.8546 331.807 59.7902C330.721 62.7257 330.178 66.1167 330.178 69.9621C330.178 73.866 330.721 77.2417 331.807 80.0891C332.922 82.9071 334.522 85.0947 336.606 86.6506C338.72 88.177 341.318 88.9405 344.4 88.9406C347.424 88.9406 349.978 88.1916 352.062 86.6945C354.176 85.1681 355.791 82.9959 356.906 80.1779C358.051 77.3305 358.624 73.925 358.624 69.9621C358.624 65.999 358.066 62.5637 356.95 59.6574C355.835 56.722 354.22 54.4467 352.106 52.8322C349.993 51.2178 347.424 50.4103 344.4 50.4103Z" fill="white"/>
<path d="M380.329 107H645.671L650 117H376L380.329 107Z" fill="#F68622"/>
<path d="M375.514 122H647.514L654 130H366L375.514 122Z" fill="#F68622"/>
</svg>
