<svg width="178" height="35" viewBox="0 0 178 35" fill="none" xmlns="http://www.w3.org/2000/svg">
<path d="M0 18.7041L14.0565 34.1931H20.0309L0 12.1205V18.7041Z" fill="#16214A"/>
<path d="M0 6.5836L25.0561 34.1932H31.0309L0 0V6.5836Z" fill="#F68622"/>
<path d="M31.9952 9.97364C31.9965 9.93532 31.9991 9.897 32 9.85868H31.9899C31.7568 4.45252 27.292 0.125122 21.8295 0.125122H6.24048L10.2556 4.54943H21.8295C24.8896 4.54943 27.396 6.95188 27.5687 9.96924C27.396 12.9866 24.8896 15.3891 21.8295 15.3891H20.3569L24.1311 19.5477C28.4968 18.5333 31.7912 14.7019 31.9903 10.0798H32C31.9996 10.0441 31.9965 10.0093 31.9952 9.97364Z" fill="#16214A"/>
<path d="M168.569 27.6359C166.501 27.6359 164.732 27.2265 163.26 26.4079C161.788 25.5809 160.659 24.4315 159.874 22.9596C159.088 21.4794 158.695 19.7635 158.695 17.812C158.695 15.8604 159.088 14.1487 159.874 12.6768C160.659 11.1966 161.788 10.0471 163.26 9.22849C164.732 8.40157 166.501 7.98811 168.569 7.98811C170.438 7.98811 172.054 8.32714 173.419 9.00522C174.791 9.67503 175.854 10.626 176.607 11.8581C177.359 13.082 177.739 14.5208 177.748 16.1747H171.397C171.306 15.1741 171.017 14.4133 170.529 13.8924C170.049 13.3631 169.429 13.0985 168.668 13.0985C168.073 13.0985 167.552 13.2722 167.105 13.6195C166.659 13.9585 166.311 14.4753 166.063 15.17C165.815 15.8563 165.691 16.7204 165.691 17.7624C165.691 18.8043 165.815 19.6726 166.063 20.3672C166.311 21.0535 166.659 21.5704 167.105 21.9177C167.552 22.2567 168.073 22.4262 168.668 22.4262C169.172 22.4262 169.619 22.3105 170.008 22.0789C170.396 21.8391 170.711 21.4918 170.95 21.037C171.198 20.5739 171.347 20.0116 171.397 19.3501H177.748C177.723 21.0287 177.338 22.4924 176.594 23.741C175.85 24.9814 174.796 25.9407 173.431 26.6187C172.075 27.2968 170.454 27.6359 168.569 27.6359Z" fill="#222762"/>
<path d="M156.801 8.23617V13.1977H144.248V8.23617H156.801ZM146.679 3.67154H153.526V21.161C153.526 21.4256 153.571 21.6489 153.662 21.8308C153.753 22.0045 153.894 22.1368 154.084 22.2277C154.274 22.3104 154.518 22.3518 154.816 22.3518C155.023 22.3518 155.262 22.327 155.535 22.2774C155.816 22.2277 156.023 22.1864 156.156 22.1533L157.148 26.966C156.842 27.057 156.404 27.1686 155.833 27.3009C155.271 27.4332 154.601 27.5201 153.824 27.5614C152.252 27.6441 150.934 27.4829 149.867 27.0777C148.8 26.6642 147.998 26.0151 147.46 25.1303C146.923 24.2454 146.662 23.1374 146.679 21.806V3.67154Z" fill="#222762"/>
<path d="M142.319 14.4381H136.018C135.985 14.0495 135.848 13.7146 135.609 13.4334C135.369 13.1523 135.059 12.9373 134.678 12.7884C134.306 12.6313 133.893 12.5527 133.438 12.5527C132.851 12.5527 132.346 12.6602 131.925 12.8752C131.503 13.0902 131.296 13.3962 131.304 13.7931C131.296 14.0743 131.416 14.3348 131.664 14.5746C131.92 14.8144 132.412 15.0004 133.14 15.1327L137.01 15.8274C138.962 16.1829 140.413 16.7825 141.364 17.6259C142.323 18.4611 142.807 19.5816 142.815 20.9874C142.807 22.3435 142.402 23.5219 141.6 24.5225C140.806 25.5148 139.718 26.2838 138.337 26.8296C136.965 27.3671 135.398 27.6359 133.636 27.6359C130.726 27.6359 128.447 27.0405 126.802 25.8497C125.164 24.6589 124.251 23.0878 124.061 21.1362H130.858C130.949 21.7399 131.247 22.2071 131.751 22.5379C132.264 22.8604 132.909 23.0216 133.686 23.0216C134.314 23.0216 134.831 22.9141 135.236 22.6991C135.65 22.4841 135.861 22.1781 135.869 21.7812C135.861 21.4174 135.679 21.128 135.323 20.9129C134.976 20.6979 134.43 20.5243 133.686 20.392L130.312 19.7966C128.369 19.4576 126.913 18.8126 125.946 17.8616C124.978 16.9106 124.499 15.6868 124.507 14.19C124.499 12.867 124.846 11.7465 125.549 10.8286C126.26 9.90244 127.273 9.19955 128.588 8.71993C129.911 8.23205 131.478 7.98811 133.289 7.98811C136.043 7.98811 138.213 8.55868 139.801 9.69984C141.397 10.841 142.236 12.4204 142.319 14.4381Z" fill="#222762"/>
<path d="M114.568 27.2885V8.23618H121.415V27.2885H114.568ZM117.992 6.25155C117.065 6.25155 116.272 5.94559 115.61 5.33367C114.949 4.72174 114.618 3.98578 114.618 3.12578C114.618 2.26578 114.949 1.52981 115.61 0.917886C116.272 0.305962 117.065 0 117.992 0C118.926 0 119.72 0.305962 120.373 0.917886C121.035 1.52981 121.365 2.26578 121.365 3.12578C121.365 3.98578 121.035 4.72174 120.373 5.33367C119.72 5.94559 118.926 6.25155 117.992 6.25155Z" fill="#222762"/>
<path d="M101.064 34.8301C99.1536 34.8301 97.5163 34.5572 96.1519 34.0114C94.7957 33.4739 93.7414 32.7297 92.9889 31.7788C92.2447 30.8361 91.8271 29.7528 91.7361 28.5289H98.335C98.4011 28.9341 98.5665 29.2608 98.8311 29.5088C99.0957 29.7569 99.4348 29.9347 99.8482 30.0422C100.27 30.158 100.741 30.2159 101.262 30.2159C102.147 30.2159 102.879 30.0009 103.458 29.5709C104.045 29.1409 104.338 28.3635 104.338 27.2389V24.0139H104.14C103.892 24.6589 103.512 25.2088 102.999 25.6636C102.486 26.1102 101.87 26.4534 101.151 26.6932C100.431 26.9247 99.6415 27.0405 98.7815 27.0405C97.4253 27.0405 96.1767 26.7262 95.0355 26.0978C93.9026 25.4693 92.993 24.4729 92.3067 23.1084C91.6286 21.744 91.2896 19.962 91.2896 17.7624C91.2896 15.4635 91.6451 13.5947 92.3563 12.1558C93.0757 10.717 94.0019 9.66263 95.1348 8.99282C96.2759 8.32301 97.475 7.98811 98.7319 7.98811C99.6746 7.98811 100.502 8.15349 101.213 8.48426C101.924 8.80676 102.519 9.2409 102.999 9.78667C103.478 10.3242 103.842 10.9154 104.09 11.5604H104.239V8.23618H111.086V27.2389C111.086 28.8514 110.669 30.22 109.833 31.3446C109.006 32.4775 107.84 33.3416 106.335 33.937C104.83 34.5324 103.073 34.8301 101.064 34.8301ZM101.312 22.1781C101.94 22.1781 102.478 22.0045 102.924 21.6572C103.379 21.3016 103.727 20.7972 103.966 20.1439C104.214 19.4824 104.338 18.6885 104.338 17.7624C104.338 16.8197 104.214 16.0134 103.966 15.3436C103.727 14.6655 103.379 14.1487 102.924 13.7931C102.478 13.4293 101.94 13.2474 101.312 13.2474C100.683 13.2474 100.146 13.4293 99.6994 13.7931C99.2611 14.1487 98.9221 14.6655 98.6823 15.3436C98.4507 16.0134 98.335 16.8197 98.335 17.7624C98.335 18.7051 98.4507 19.5072 98.6823 20.1687C98.9221 20.822 99.2611 21.3223 99.6994 21.6696C100.146 22.0086 100.683 22.1781 101.312 22.1781Z" fill="#222762"/>
<path d="M79.2329 27.6359C77.1655 27.6359 75.3959 27.2265 73.924 26.4079C72.4521 25.5809 71.3233 24.4315 70.5377 22.9596C69.7522 21.4794 69.3594 19.7635 69.3594 17.812C69.3594 15.8604 69.7522 14.1487 70.5377 12.6768C71.3233 11.1966 72.4521 10.0471 73.924 9.22849C75.3959 8.40157 77.1655 7.98811 79.2329 7.98811C81.3002 7.98811 83.0698 8.40157 84.5417 9.22849C86.0137 10.0471 87.1424 11.1966 87.928 12.6768C88.7136 14.1487 89.1064 15.8604 89.1064 17.812C89.1064 19.7635 88.7136 21.4794 87.928 22.9596C87.1424 24.4315 86.0137 25.5809 84.5417 26.4079C83.0698 27.2265 81.3002 27.6359 79.2329 27.6359ZM79.2825 22.5751C79.8613 22.5751 80.3616 22.3807 80.7833 21.9921C81.2051 21.6034 81.5317 21.0494 81.7633 20.33C81.9948 19.6105 82.1106 18.7547 82.1106 17.7624C82.1106 16.7618 81.9948 15.9059 81.7633 15.1948C81.5317 14.4753 81.2051 13.9213 80.7833 13.5326C80.3616 13.144 79.8613 12.9497 79.2825 12.9497C78.6706 12.9497 78.1455 13.144 77.7072 13.5326C77.2689 13.9213 76.934 14.4753 76.7025 15.1948C76.4709 15.9059 76.3552 16.7618 76.3552 17.7624C76.3552 18.7547 76.4709 19.6105 76.7025 20.33C76.934 21.0494 77.2689 21.6034 77.7072 21.9921C78.1455 22.3807 78.6706 22.5751 79.2825 22.5751Z" fill="#222762"/>
<path d="M50 27.2885V1.88538H56.8966V21.7316H67.167V27.2885H50Z" fill="#222762"/>
</svg>
